<?xml version="1.0" standalone="no"?>
<!DOCTYPE svg PUBLIC "-//W3C//DTD SVG 20010904//EN"
 "http://www.w3.org/TR/2001/REC-SVG-20010904/DTD/svg10.dtd">
<svg version="1.0" xmlns="http://www.w3.org/2000/svg"
 width="700.000000pt" height="700.000000pt" viewBox="0 0 700.000000 700.000000"
 preserveAspectRatio="xMidYMid meet">
<metadata>
Created by potrace 1.11, written by Peter Selinger 2001-2013
</metadata>
<g transform="translate(0.000000,700.000000) scale(0.100000,-0.100000)"
fill="#000000" stroke="none">
<path d="M3290 6989 c-454 -56 -847 -246 -1161 -561 -428 -431 -638 -1056
-543 -1618 69 -405 328 -924 727 -1455 l75 -99 -96 -39 c-307 -121 -608 -296
-882 -515 -129 -104 -377 -353 -484 -487 -456 -571 -701 -1225 -731 -1955 -7
-165 1 -195 64 -237 l34 -23 3207 0 3207 0 34 23 c63 42 71 72 64 235 -27 634
-206 1189 -551 1710 -52 78 -107 150 -121 160 -38 24 -114 23 -150 -4 -40 -29
-65 -82 -60 -125 3 -23 33 -77 84 -155 115 -172 145 -225 227 -396 63 -129
156 -360 156 -385 0 -4 -28 20 -62 53 -251 243 -603 446 -1062 614 l-129 47
-42 119 c-150 422 -365 803 -591 1043 -42 45 -71 81 -65 81 24 0 243 -86 357
-140 131 -62 265 -138 407 -232 97 -63 140 -73 198 -43 63 33 88 124 52 187
-44 75 -466 317 -748 428 -44 18 -82 33 -83 35 -2 2 43 68 100 147 533 731
751 1285 709 1799 -39 477 -231 897 -562 1229 -287 286 -638 469 -1038 541
-133 24 -420 34 -541 18z m400 -280 c193 -23 350 -69 518 -149 413 -197 722
-546 866 -980 44 -133 63 -228 78 -385 54 -571 -304 -1261 -1184 -2286 -174
-204 -460 -524 -467 -524 -7 0 -133 139 -327 360 -866 988 -1264 1649 -1326
2208 -13 118 -2 306 28 447 145 690 719 1218 1424 1309 95 12 293 13 390 0z
m-1130 -3694 c0 -3 -30 -38 -67 -77 -230 -251 -440 -622 -588 -1042 l-42 -118
-144 -53 c-444 -163 -788 -362 -1043 -604 -56 -54 -58 -55 -51 -26 24 103 180
445 275 601 309 508 732 898 1255 1159 83 41 204 95 270 120 122 45 135 49
135 40z m375 -420 c72 -82 138 -160 149 -173 l18 -23 -57 -58 c-95 -96 -150
-192 -177 -306 l-12 -54 -56 -6 c-108 -13 -317 -47 -459 -76 -79 -17 -145 -28
-147 -26 -6 6 61 168 121 296 103 214 239 425 376 581 l54 61 30 -33 c17 -19
89 -101 160 -183z m1431 83 c121 -147 225 -314 320 -512 61 -129 126 -287 120
-293 -2 -2 -68 9 -147 26 -142 29 -350 63 -460 76 l-57 6 -6 40 c-16 101 -87
226 -181 321 l-57 57 24 29 c12 16 93 109 178 206 l154 177 26 -29 c14 -17 52
-63 86 -104z m-1012 -558 c76 -90 124 -111 190 -86 31 12 60 36 102 86 33 38
62 70 67 70 18 0 96 -90 120 -141 59 -120 57 -234 -5 -352 -39 -72 -92 -120
-177 -161 -58 -27 -76 -31 -151 -30 -74 0 -94 4 -151 31 -85 39 -138 88 -177
160 -61 116 -63 234 -6 350 24 49 104 143 121 143 4 0 34 -32 67 -70z m-430
-540 c72 -148 217 -271 376 -321 l55 -17 3 -486 2 -486 -730 0 -730 0 0 63 c0
273 79 828 162 1136 l23 85 108 28 c163 42 333 76 512 102 l160 23 9 -21 c4
-12 27 -59 50 -106z m1429 94 c140 -21 364 -68 512 -107 l50 -13 23 -85 c80
-301 143 -716 158 -1052 l7 -147 -732 0 -731 0 2 486 3 486 55 17 c80 25 167
74 232 132 68 59 149 176 178 257 21 56 22 58 53 54 18 -2 103 -15 190 -28z
m-2618 -397 c-57 -279 -88 -537 -111 -909 l-6 -98 -570 0 -570 0 7 38 c11 65
60 197 98 265 154 274 440 522 828 718 115 58 351 161 356 155 1 -1 -13 -77
-32 -169z m3657 107 c203 -85 436 -218 598 -340 281 -212 482 -493 525 -736
l7 -38 -569 0 -570 0 -7 61 c-3 34 -6 87 -6 119 0 164 -56 593 -111 854 -16
77 -29 141 -29 142 0 4 64 -20 162 -62z"/>
<path d="M3350 6384 c-301 -37 -570 -166 -785 -375 -208 -202 -335 -436 -392
-717 -24 -119 -24 -383 0 -504 37 -186 120 -380 229 -533 75 -106 239 -265
344 -334 149 -98 316 -169 494 -207 64 -14 128 -18 260 -18 132 0 196 4 260
18 266 58 482 172 675 357 204 197 330 425 391 710 25 116 26 389 1 511 -57
281 -184 515 -392 717 -186 181 -393 293 -655 352 -83 19 -347 33 -430 23z
m410 -304 c389 -102 672 -387 783 -790 17 -63 21 -104 21 -250 0 -194 -11
-252 -78 -415 -100 -246 -325 -471 -571 -571 -163 -67 -221 -78 -415 -78 -148
0 -187 4 -253 22 -201 55 -363 147 -501 285 -220 219 -328 497 -313 811 12
268 121 512 311 702 156 157 349 258 569 300 108 20 338 12 447 -16z"/>
<path d="M3033 5614 c-18 -9 -42 -31 -53 -49 -19 -31 -20 -49 -20 -535 0 -447
2 -505 16 -530 36 -59 119 -78 182 -40 62 38 62 39 62 572 0 538 1 528 -69
575 -40 27 -74 29 -118 7z"/>
<path d="M3510 5612 c-19 -9 -45 -32 -57 -51 l-23 -34 0 -486 c0 -452 1 -489
18 -520 48 -89 171 -93 222 -8 17 28 20 51 20 180 l0 147 103 0 c141 0 220 14
293 50 73 36 126 91 163 169 24 51 26 67 26 176 0 112 -2 124 -28 175 -56 110
-160 187 -282 209 -32 6 -140 11 -239 11 -152 0 -187 -3 -216 -18z m445 -252
c82 -76 73 -196 -18 -264 -23 -17 -46 -21 -138 -24 l-109 -4 0 162 0 162 119
-4 c111 -3 121 -5 146 -28z"/>
<path d="M5684 2506 c-65 -29 -96 -107 -68 -175 53 -133 243 -108 260 35 13
101 -99 182 -192 140z"/>
</g>
</svg>
